<?xml version="1.0" encoding="utf-8"?>
<!-- Generator: Adobe Illustrator 16.0.4, SVG Export Plug-In . SVG Version: 6.00 Build 0)  -->
<!DOCTYPE svg PUBLIC "-//W3C//DTD SVG 1.1//EN" "http://www.w3.org/Graphics/SVG/1.1/DTD/svg11.dtd">
<svg version="1.1" id="Layer_1" xmlns="http://www.w3.org/2000/svg" xmlns:xlink="http://www.w3.org/1999/xlink" x="0px" y="0px"
	 width="1504.204px" height="308.504px" viewBox="0 0 1504.204 308.504" enable-background="new 0 0 1504.204 308.504"
	 xml:space="preserve">
<rect opacity="0.9" width="1504.204" height="308.504"/>
<polygon fill="#9F1D20" points="1028.617,0 883.191,76.283 1070.4,122.112 1076.622,143.931 1095.271,207.808 1095.271,207.808 
	1013.693,308.504 1462.072,308.504 1462.072,0 "/>
<polygon opacity="0.5" fill="#A49D9E" points="0,8.667 1137.404,308.504 910.578,308.504 "/>
<path opacity="0.8" fill="#D3CBCD" d="M0,8.667l800.151,299.836c0,0-125.351,0-130.324,0C664.853,308.504,0,8.667,0,8.667z"/>
<line fill="none" stroke="#FFFFFF" stroke-miterlimit="10" x1="472.33" y1="104.581" x2="840.423" y2="104.581"/>
<line fill="none" stroke="#FFFFFF" stroke-miterlimit="10" x1="383.312" y1="205.359" x2="601.184" y2="205.359"/>
<line fill="none" stroke="#FFFFFF" stroke-width="0.25" stroke-miterlimit="10" x1="276.605" y1="40.497" x2="442.266" y2="40.497"/>
<line fill="none" stroke="#FFFFFF" stroke-miterlimit="10" x1="275.352" y1="50.683" x2="441.012" y2="50.683"/>
<line fill="none" stroke="#FFFFFF" stroke-width="0.25" stroke-miterlimit="10" x1="0" y1="88.65" x2="474.837" y2="88.65"/>
<line fill="none" stroke="#FFFFFF" stroke-miterlimit="10" x1="0" y1="158.586" x2="474.837" y2="158.586"/>
<line fill="none" stroke="#FFFFFF" stroke-miterlimit="10" x1="907.38" y1="272.283" x2="1200" y2="272.283"/>
<line fill="none" stroke="#FFFFFF" stroke-miterlimit="10" x1="1374.177" y1="0" x2="1374.175" y2="300.916"/>
<line fill="none" stroke="#FFFFFF" stroke-width="0.25" stroke-miterlimit="10" x1="1039.91" y1="121.476" x2="1504.204" y2="121.476"/>
<line fill="none" stroke="#FFFFFF" stroke-miterlimit="10" x1="0" y1="229.844" x2="378.808" y2="229.844"/>
<rect x="471.355" y="88.65" fill="#FFFFFF" width="6.964" height="15.507"/>
<rect x="222.643" y="229.844" fill="#FFFFFF" width="6.964" height="15.506"/>
<rect x="267.153" y="37.641" fill="#FFFFFF" width="18.903" height="5.713"/>
<rect x="278.205" y="224.131" fill="#FFFFFF" width="15.08" height="5.713"/>
<rect x="354.709" y="222.703" opacity="0.5" fill="#FFFFFF" width="9.452" height="2.856"/>
<rect x="839.211" y="106.173" fill="#FFFFFF" width="2.424" height="30.605"/>
<rect x="440.617" y="40.497" fill="#FFFFFF" width="0.791" height="9.982"/>
<line fill="none" stroke="#FFFFFF" stroke-miterlimit="10" x1="127.636" y1="40.497" x2="127.636" y2="293.895"/>
<rect x="822.037" y="106.173" fill="#FFFFFF" width="2.986" height="36.727"/>
<line fill="#FFFFFF" stroke="#FFFFFF" stroke-width="0.5" stroke-miterlimit="10" x1="0" y1="245.35" x2="631.617" y2="245.35"/>
<g>
	<path fill="#FFFFFF" d="M1092.254,281.201c1.42,2.133,3.605,3.198,6.558,3.198c1.129,0,2.181-0.241,3.157-0.722
		c0.976-0.481,1.766-1.232,2.371-2.252s0.907-2.293,0.907-3.819c0-1.31-0.311-2.483-0.932-3.521
		c-0.621-1.036-1.464-1.985-2.528-2.848s-2.484-1.842-4.258-2.937c-1.969-1.211-3.549-2.298-4.742-3.26
		c-1.193-0.961-2.174-2.109-2.939-3.445c-0.767-1.335-1.149-2.907-1.149-4.715c0-1.924,0.423-3.549,1.271-4.877
		c0.846-1.326,1.975-2.317,3.387-2.973c1.411-0.655,2.964-0.982,4.658-0.982c1.016,0,1.891,0.087,2.625,0.261
		c0.733,0.174,1.342,0.391,1.826,0.646c0.484,0.258,1.016,0.586,1.597,0.983c0.741,0.48,1.307,0.721,1.693,0.721
		c0.307,0,0.54-0.178,0.702-0.534c0.161-0.357,0.29-0.924,0.387-1.705h1.138c-0.161,1.99-0.242,5.458-0.242,10.401h-1.138
		c-0.129-1.743-0.496-3.352-1.1-4.828c-0.605-1.476-1.493-2.674-2.662-3.595c-1.17-0.92-2.625-1.381-4.367-1.381
		c-1.161,0-2.201,0.249-3.121,0.746c-0.92,0.498-1.637,1.195-2.153,2.091s-0.774,1.924-0.774,3.085c0,1.841,0.541,3.326,1.621,4.453
		c1.08,1.129,2.343,2.145,3.787,3.049c1.443,0.903,2.415,1.514,2.915,1.827c2.081,1.344,3.726,2.51,4.936,3.497
		c1.21,0.986,2.177,2.131,2.903,3.433c0.727,1.304,1.089,2.816,1.089,4.541c0,2.09-0.468,3.86-1.403,5.312
		c-0.936,1.451-2.198,2.542-3.787,3.271c-1.588,0.729-3.367,1.095-5.334,1.095c-1.581,0-2.879-0.17-3.896-0.51
		c-1.016-0.34-1.975-0.801-2.878-1.382c-0.743-0.48-1.307-0.721-1.694-0.721c-0.307,0-0.541,0.179-0.701,0.535
		c-0.162,0.356-0.291,0.925-0.387,1.704h-1.138c0.129-1.858,0.194-5.929,0.194-12.217h1.137
		C1090.013,276.279,1090.835,279.07,1092.254,281.201z"/>
	<path fill="#FFFFFF" d="M1143.358,282.868c0.499,0.407,1.097,0.659,1.79,0.76v1.069c-2-0.132-3.339-0.199-4.017-0.199
		c-0.887,0-2.718,0.067-5.491,0.199v-1.069c0.467,0,0.838-0.091,1.112-0.274c0.274-0.182,0.411-0.415,0.411-0.696
		c0-0.232-0.097-0.489-0.29-0.771l-5.687-8.561c-0.596-0.861-1.145-1.442-1.645-1.741c-0.5-0.298-1.193-0.464-2.081-0.497v8.883
		c0,0.945,0.108,1.683,0.327,2.213c0.217,0.532,0.557,0.905,1.016,1.121c0.46,0.215,1.102,0.323,1.924,0.323v1.069
		c-2.774-0.132-4.605-0.199-5.492-0.199c-0.968,0-2.969,0.067-6,0.199v-1.069c0.936,0,1.673-0.108,2.214-0.323
		c0.54-0.216,0.935-0.589,1.185-1.121c0.25-0.53,0.375-1.268,0.375-2.213v-29.111c0-1.575-0.277-2.716-0.834-3.421
		s-1.537-1.058-2.939-1.058v-1.069c1.048,0.099,2.072,0.148,3.072,0.148c2.129,0,3.848-0.239,5.153-0.721v25.303
		c0.968-0.132,1.774-0.36,2.42-0.684c0.645-0.323,1.258-0.801,1.839-1.431l3.678-3.907c1.048-1.126,1.572-2.064,1.572-2.811
		c0-0.598-0.33-1.036-0.992-1.318c-0.661-0.281-1.549-0.423-2.661-0.423v-1.021c2.29,0.134,4.153,0.2,5.589,0.2
		c1.549,0,2.984-0.066,4.307-0.2v1.021c-1.613,0.149-3.097,0.945-4.451,2.389l-6.025,6.518l8.952,12.591
		C1142.302,281.828,1142.857,282.463,1143.358,282.868z"/>
	<path fill="#FFFFFF" d="M1171.603,258.598c1.468,0,2.726-0.05,3.774-0.149v1.021c-0.661,0.083-1.25,0.39-1.766,0.921
		c-0.517,0.53-1,1.418-1.452,2.661l-8.13,21.896l-1.693,4.429c-0.629,1.675-1.339,2.869-2.129,3.582
		c-0.936,0.88-2.227,1.319-3.871,1.319c-0.984,0-1.791-0.27-2.42-0.809s-0.943-1.29-0.943-2.252c0-0.812,0.234-1.464,0.701-1.952
		c0.469-0.49,1.113-0.735,1.936-0.735c0.727,0,1.327,0.208,1.803,0.623c0.477,0.413,0.715,1.003,0.715,1.767
		c0,1.011-0.445,1.774-1.332,2.288c0.064,0.033,0.162,0.051,0.291,0.051c1.822,0,3.226-1.328,4.21-3.981l1.767-4.652l-9.001-22.243
		c-0.564-1.178-1.125-1.949-1.682-2.313c-0.556-0.366-1.117-0.549-1.682-0.549v-1.069c1.549,0.216,3.17,0.323,4.863,0.323
		c1.419,0,3.564-0.107,6.436-0.323v1.069c-0.807,0-1.436,0.03-1.887,0.088c-0.452,0.058-0.827,0.216-1.125,0.473
		c-0.299,0.257-0.448,0.659-0.448,1.207c0,0.613,0.21,1.451,0.63,2.513l5.976,15.227l5.469-14.755
		c0.354-0.994,0.531-1.773,0.531-2.338c0-0.796-0.294-1.385-0.883-1.767c-0.589-0.381-1.528-0.613-2.818-0.696v-1.021
		C1169.184,258.548,1170.57,258.598,1171.603,258.598z"/>
	<path fill="#FFFFFF" d="M1225.668,282.619c0.307,0.341,0.629,0.585,0.969,0.734s0.758,0.241,1.258,0.274v1.069
		c-2.258-0.132-3.676-0.199-4.258-0.199c-1.113,0-3.443,0.067-6.992,0.199v-1.069c1.291,0,2.201-0.059,2.733-0.175
		c0.532-0.115,0.798-0.331,0.798-0.646c0-0.249-0.119-0.556-0.361-0.92l-8.469-13.337l-5.347,8.211
		c-1.259,1.924-1.888,3.416-1.888,4.479c0,0.862,0.375,1.477,1.125,1.84c0.751,0.366,1.843,0.564,3.279,0.599v1.02
		c-1.873-0.1-4.098-0.149-6.678-0.149c-1.824,0-3.227,0.05-4.211,0.149v-1.02c0.984-0.15,1.924-0.606,2.818-1.368
		c0.896-0.763,1.819-1.867,2.771-3.31l7.476-11.471l-9.702-15.3c-0.42-0.682-0.782-1.191-1.088-1.531
		c-0.307-0.34-0.63-0.584-0.969-0.733c-0.338-0.15-0.758-0.24-1.258-0.274v-1.069c2.258,0.132,3.678,0.198,4.258,0.198
		c2.21,0,4.541-0.066,6.993-0.198v1.069c-2.21,0-3.315,0.373-3.315,1.119c0,0.267,0.146,0.64,0.436,1.12l7.719,12.142l4.863-7.489
		c1.436-2.206,2.152-3.839,2.152-4.901c0-0.713-0.318-1.223-0.955-1.53c-0.638-0.307-1.602-0.477-2.891-0.511v-1.019
		c1.887,0.1,3.789,0.149,5.709,0.149c1.807,0,3.21-0.05,4.21-0.149v1.019c-1,0.151-1.947,0.611-2.843,1.382
		c-0.896,0.771-1.812,1.87-2.746,3.297l-6.943,10.648l10.258,16.122C1224.999,281.77,1225.362,282.28,1225.668,282.619z"/>
	<path fill="#FFFFFF" d="M1244.412,282.184c0.25,0.532,0.645,0.905,1.186,1.121c0.541,0.215,1.278,0.323,2.215,0.323v1.069
		c-3.033-0.132-5.033-0.199-6.002-0.199c-0.967,0-2.967,0.067-6,0.199v-1.069c0.936,0,1.674-0.108,2.214-0.323
		c0.54-0.216,0.936-0.589,1.187-1.121c0.25-0.53,0.375-1.268,0.375-2.213v-15.95c0-1.574-0.278-2.719-0.836-3.433
		c-0.556-0.713-1.535-1.07-2.939-1.07v-1.069c1.033,0.1,2.057,0.149,3.074,0.149c2.096,0,3.813-0.232,5.152-0.696v22.069
		C1244.037,280.916,1244.162,281.653,1244.412,282.184z M1243.045,246.157c0.484,0.3,0.871,0.697,1.162,1.194
		c0.29,0.498,0.435,1.037,0.435,1.618c0,0.58-0.145,1.123-0.435,1.628c-0.291,0.507-0.678,0.905-1.162,1.195
		c-0.483,0.29-1.008,0.437-1.572,0.437s-1.094-0.146-1.585-0.437c-0.492-0.29-0.879-0.688-1.161-1.195
		c-0.282-0.505-0.424-1.048-0.424-1.628c0-0.581,0.142-1.12,0.424-1.618c0.282-0.497,0.669-0.895,1.161-1.194
		c0.491-0.298,1.021-0.447,1.585-0.447S1242.562,245.859,1243.045,246.157z"/>
	<path fill="#FFFFFF" d="M1276.136,281.924c-0.847,1.036-1.903,1.878-3.17,2.524c-1.267,0.647-2.682,0.971-4.246,0.971
		c-2.354,0-4.392-0.552-6.108-1.654c-1.719-1.103-3.029-2.653-3.933-4.653c-0.903-1.998-1.354-4.3-1.354-6.904
		c0-2.952,0.46-5.515,1.379-7.688c0.92-2.173,2.222-3.844,3.908-5.013c1.686-1.169,3.656-1.754,5.915-1.754
		c2.968,0,5.254,0.925,6.858,2.774c1.605,1.85,2.408,4.656,2.408,8.421h-15.484c-0.113,0.88-0.17,1.967-0.17,3.26
		c0,2.24,0.359,4.196,1.077,5.871c0.717,1.676,1.657,2.962,2.818,3.857s2.387,1.344,3.677,1.344c3.324,0,5.751-1.7,7.283-5.101
		l0.992,0.397C1277.6,279.771,1276.982,280.886,1276.136,281.924z M1272.615,263.325c-0.338-1.409-0.871-2.53-1.597-3.359
		c-0.726-0.828-1.622-1.243-2.687-1.243c-1.016,0-1.951,0.335-2.806,1.007c-0.855,0.672-1.577,1.7-2.165,3.086
		c-0.59,1.384-0.965,3.105-1.126,5.162h10.791C1273.092,266.286,1272.953,264.735,1272.615,263.325z"/>
	
		<text transform="matrix(0.9724 0 0 1 1288.4346 284.8994)" fill="#D6D6D6" font-family="'PlayfairDisplay-Regular'" font-size="37.0205">‘s portfolio</text>
</g>
</svg>
