<?xml version="1.0" encoding="utf-8"?>
<!-- Generator: Adobe Illustrator 16.0.0, SVG Export Plug-In . SVG Version: 6.00 Build 0)  -->
<!DOCTYPE svg PUBLIC "-//W3C//DTD SVG 1.1//EN" "http://www.w3.org/Graphics/SVG/1.1/DTD/svg11.dtd">
<svg version="1.1" id="图层_1" xmlns="http://www.w3.org/2000/svg" xmlns:xlink="http://www.w3.org/1999/xlink" x="0px" y="0px"
	 width="1103px" height="431px" viewBox="0 0 1103 431" enable-background="new 0 0 1103 431" xml:space="preserve">
<polygon fill="#B41D23" points="928.407,325.791 0,325.791 0,105.208 928.407,105.208 1103,216 "/>
<g>
	<path fill="none" d="M768.475,75.283c-4.219-2.383-8.533-4.606-12.949-6.656l-7.099,29.805L768.475,75.283z"/>
	<path fill="none" d="M727.571,58.336c-4.653-1.294-9.373-2.422-14.168-3.354l0.24,30.637L727.571,58.336z"/>
	<path fill="none" d="M804.109,101.535c-3.529-3.322-7.183-6.509-10.968-9.547l-14.01,27.208L804.109,101.535z"/>
	<path fill="none" d="M832.473,135.528c-2.643-4.077-5.431-8.047-8.379-11.894l-20.12,23.071L832.473,135.528z"/>
	<path fill="none" d="M716.842,414.831c4.776-1.021,9.479-2.231,14.111-3.616l-14.457-27.027L716.842,414.831z"/>
	<path fill="none" d="M851.886,175.323c-1.59-4.608-3.348-9.135-5.286-13.569l-25.084,17.604L851.886,175.323z"/>
	<path fill="none" d="M758.703,400.4c4.375-2.137,8.641-4.456,12.814-6.923l-20.489-22.765L758.703,400.4z"/>
	<path fill="none" d="M826.211,344.079c2.877-3.901,5.593-7.925,8.158-12.056l-28.724-10.637L826.211,344.079z"/>
	<path fill="none" d="M847.986,305.534c1.854-4.471,3.523-9.036,5.026-13.676l-30.456-3.456L847.986,305.534z"/>
	<path fill="none" d="M861.155,218.609c-0.437-4.868-1.072-9.677-1.883-14.427l-28.543,11.08L861.155,218.609z"/>
	<path fill="none" d="M859.87,262.877c0.719-4.763,1.206-9.598,1.552-14.473l-30.34,3.926L859.87,262.877z"/>
	<path fill="none" d="M588.078,395.229c4.217,2.384,8.533,4.604,12.949,6.654l7.099-29.806L588.078,395.229z"/>
	<path fill="none" d="M524.079,334.982c2.642,4.077,5.429,8.046,8.379,11.893l20.118-23.07L524.079,334.982z"/>
	<path fill="none" d="M683.789,51.729c-1.836-0.055-3.665-0.141-5.514-0.141c-3.03,0-6.04,0.084-9.035,0.23l7.564,29.686
		L683.789,51.729z"/>
	<path fill="none" d="M552.441,368.975c3.53,3.323,7.185,6.512,10.969,9.55l14.01-27.21L552.441,368.975z"/>
	<path fill="none" d="M795.868,376.319c3.727-3.11,7.316-6.376,10.784-9.767l-25.32-17.188L795.868,376.319z"/>
	<path fill="none" d="M679.743,389.006l-6.982,29.775c1.837,0.055,3.665,0.141,5.515,0.141c3.029,0,6.038-0.084,9.032-0.229
		L679.743,389.006z"/>
	<path fill="none" d="M628.978,412.174c4.653,1.295,9.374,2.423,14.169,3.354l-0.24-30.637L628.978,412.174z"/>
	<path fill="none" d="M495.396,251.9c0.437,4.868,1.074,9.677,1.884,14.427l28.542-11.08L495.396,251.9z"/>
	<path fill="none" d="M504.666,295.187c1.59,4.608,3.348,9.137,5.286,13.569l25.085-17.604L504.666,295.187z"/>
	<path fill="none" d="M597.848,70.111c-4.376,2.135-8.643,4.457-12.815,6.921l20.489,22.766L597.848,70.111z"/>
	<path fill="none" d="M639.708,55.678c-4.777,1.021-9.48,2.232-14.11,3.617l14.455,27.027L639.708,55.678z"/>
	<path fill="none" d="M560.684,94.192c-3.727,3.11-7.317,6.375-10.784,9.767l25.32,17.186L560.684,94.192z"/>
	<path fill="none" d="M508.565,164.976c-1.854,4.473-3.523,9.036-5.026,13.677l30.453,3.456L508.565,164.976z"/>
	<path fill="none" d="M496.682,207.634c-0.719,4.763-1.206,9.597-1.552,14.47l30.336-3.923L496.682,207.634z"/>
	<path fill="none" d="M530.341,126.431c-2.876,3.901-5.592,7.925-8.158,12.056l28.724,10.636L530.341,126.431z"/>
	<path fill="#727272" d="M687.308,418.692c10.083-0.487,19.943-1.81,29.534-3.861l-0.346-30.644l14.457,27.027
		c9.602-2.871,18.877-6.487,27.75-10.814l-7.675-29.688l20.489,22.765c8.587-5.072,16.735-10.805,24.351-17.158l-14.536-26.954
		l25.32,17.188c7.104-6.949,13.651-14.456,19.559-22.474l-20.565-22.692l28.724,10.637c5.222-8.403,9.789-17.253,13.617-26.489
		l-25.43-17.132l30.456,3.456c3.03-9.359,5.356-19.032,6.857-28.981l-28.788-10.547l30.34-3.926
		c0.309-4.349,0.521-8.723,0.521-13.149c0-5.613-0.292-11.159-0.787-16.646l-30.426-3.347l28.543-11.08
		c-1.691-9.916-4.175-19.554-7.387-28.859l-30.37,4.035l25.084-17.604c-4.006-9.161-8.743-17.92-14.127-26.226l-28.499,11.177
		l20.12-23.071c-6.058-7.9-12.746-15.285-19.984-22.099l-24.978,17.661l14.01-27.208c-7.733-6.209-15.98-11.797-24.667-16.705
		l-20.048,23.149l7.099-29.805c-8.95-4.158-18.29-7.604-27.954-10.292l-13.928,27.283l-0.24-30.637
		c-9.625-1.864-19.519-2.956-29.614-3.254l-6.984,29.775l-7.564-29.686c-10.082,0.487-19.941,1.81-29.532,3.86l0.345,30.644
		l-14.455-27.027c-9.602,2.872-18.878,6.487-27.75,10.816l7.673,29.687l-20.489-22.766c-8.587,5.072-16.734,10.803-24.349,17.16
		l14.536,26.952l-25.32-17.186c-7.104,6.946-13.652,14.455-19.559,22.473l20.566,22.692l-28.724-10.636
		c-5.222,8.404-9.788,17.253-13.617,26.489l25.427,17.133l-30.453-3.456c-3.03,9.358-5.357,19.031-6.857,28.981l28.785,10.547
		l-30.336,3.923c-0.308,4.351-0.521,8.725-0.521,13.151c0,5.613,0.292,11.16,0.786,16.646l30.427,3.347l-28.542,11.08
		c1.689,9.916,4.174,19.555,7.386,28.859l30.371-4.035l-25.085,17.604c4.005,9.161,8.742,17.921,14.126,26.227l28.497-11.178
		l-20.118,23.07c6.058,7.901,12.745,15.286,19.983,22.1l24.979-17.66l-14.01,27.21c7.734,6.208,15.98,11.796,24.668,16.704
		l20.047-23.151l-7.099,29.806c8.949,4.158,18.289,7.604,27.951,10.291l13.929-27.283l0.24,30.637
		c9.624,1.865,19.518,2.957,29.614,3.254l6.982-29.775L687.308,418.692z"/>
</g>
<circle fill="#D3D3D3" cx="678.276" cy="235.254" r="178.405"/>
</svg>
